<?xml version="1.0" encoding="utf-8"?>
<!-- Generator: Adobe Illustrator 19.1.0, SVG Export Plug-In . SVG Version: 6.00 Build 0)  -->
<svg version="1.1" id="Layer_1" xmlns="http://www.w3.org/2000/svg" xmlns:xlink="http://www.w3.org/1999/xlink" x="0px" y="0px"
     height="19"
	 width = "82.5"
	 viewBox="0 0 120.8 20" style="enable-background:new 0 0 120.8 20;" xml:space="preserve">
<style type="text/css">
	.st0{fill-rule:evenodd;clip-rule:evenodd;fill:#7ED04D;}
	.st1{opacity:0.5;fill-rule:evenodd;clip-rule:evenodd;fill:#231F20;}
	.st2{fill-rule:evenodd;clip-rule:evenodd;fill:none;}
	.st3{fill:#231F20;}
	.st4{opacity:0.5;}
	.st5{opacity:0.5;fill:#231F20;}
	.st6{fill:#FFFFFF;}
	.st7{fill-rule:evenodd;clip-rule:evenodd;fill:#65CEFB;}
	.st8{fill-rule:evenodd;clip-rule:evenodd;fill:#0090FF;}
	.st9{opacity:0.25;}
</style>
<path class="st0" d="M3,0h114.8c1.7,0,3,1.3,3,3v14c0,1.7-1.3,3-3,3H3c-1.7,0-3-1.3-3-3V3C0,1.3,1.3,0,3,0z"/>
<path class="st1" d="M117.8,0H34v20h83.8c1.7,0,3-1.3,3-3V3C120.8,1.3,119.5,0,117.8,0z"/>
<path class="st2" d="M3,0h114.8c1.7,0,3,1.3,3,3v14c0,1.7-1.3,3-3,3H3c-1.7,0-3-1.3-3-3V3C0,1.3,1.3,0,3,0z"/>
<path class="st3" d="M25.4,14.8v-0.9c0-0.3-0.1-0.5-0.1-0.8c-0.5-2.2-2-4-4.1-5.1l1.3-2.4c0.1-0.1,0-0.3-0.1-0.4
	c-0.1-0.1-0.3,0-0.4,0.1l-1.3,2.4C19.6,7.3,18.3,7,17,7c-1.3,0-2.6,0.3-3.7,0.8L12,5.4c-0.1-0.1-0.3-0.2-0.4-0.1
	c-0.1,0.1-0.2,0.3-0.1,0.4L12.8,8c-2,1-3.5,2.8-4,4.8c-0.1,0.5-0.2,1.1-0.2,1.7c0,0.1,0,0.2,0,0.3H25.4z M20.8,10.2
	c0.4,0,0.8,0.4,0.8,0.8c0,0.4-0.4,0.8-0.8,0.8c-0.4,0-0.8-0.4-0.8-0.8C20,10.6,20.4,10.2,20.8,10.2z M13.2,10.2
	c0.4,0,0.8,0.4,0.8,0.8c0,0.4-0.4,0.8-0.8,0.8c-0.4,0-0.8-0.4-0.8-0.8C12.4,10.6,12.7,10.2,13.2,10.2z"/>
<g class="st4">
	<g>
		<path class="st3" d="M46.3,7.3v1.1H42v1.8h3.3v1.1H42v2.5h-1.3V7.3H46.3z"/>
		<path class="st3" d="M52,7.2l1.3,1.2v4.3L52,13.9h-3.8L47,12.7V8.4l1.3-1.2H52z M48.3,8.8v3.4l0.6,0.6h2.6l0.6-0.6V8.8l-0.6-0.6
			h-2.6L48.3,8.8z"/>
		<path class="st3" d="M56.1,11.6v2.1h-1.3V7.3h4.7l1.2,1.1v2.1l-1.1,1.1l1.6,2.2h-1.5l-1.5-2.1H56.1z M58.9,8.4h-2.8v2.1h2.8
			l0.5-0.5V8.8L58.9,8.4z"/>
		<path class="st3" d="M69.6,12.1h-3.1l-0.7,1.7h-1.4l2.9-6.5h1.7l2.9,6.5h-1.4L69.6,12.1z M67.1,10.9h2.1l-1-2.4L67.1,10.9z"/>
		<path class="st3" d="M77.5,7.3h1.3v6.5h-1.3l-3.6-4.5v4.5h-1.3V7.3h1.3l3.6,4.5V7.3z"/>
		<path class="st3" d="M80.4,7.3h4.8l1.3,1.2v4.1l-1.3,1.2h-4.8V7.3z M84.6,12.7l0.6-0.6V8.9l-0.6-0.6h-2.9v4.3H84.6z"/>
		<path class="st3" d="M89.3,11.6v2.1H88V7.3h4.7l1.2,1.1v2.1l-1.1,1.1l1.6,2.2h-1.5l-1.5-2.1H89.3z M92.1,8.4h-2.8v2.1h2.8l0.5-0.5
			V8.8L92.1,8.4z"/>
		<path class="st3" d="M100.3,7.2l1.3,1.2v4.3l-1.3,1.2h-3.8l-1.3-1.2V8.4l1.3-1.2H100.3z M96.5,8.8v3.4l0.6,0.6h2.6l0.6-0.6V8.8
			l-0.6-0.6h-2.6L96.5,8.8z"/>
		<path class="st3" d="M102.8,13.8v-1.1h1.3V8.4h-1.3V7.3h3.9v1.1h-1.3v4.3h1.3v1.1H102.8z"/>
		<path class="st3" d="M108,7.3h4.8l1.3,1.2v4.1l-1.3,1.2H108V7.3z M112.2,12.7l0.6-0.6V8.9l-0.6-0.6h-2.9v4.3H112.2z"/>
	</g>
</g>
<path class="st5" d="M25.4,15.2v-0.9c0-0.3-0.1-0.5-0.1-0.8c-0.5-2.2-2-4-4.1-5.1l1.3-2.4c0.1-0.1,0-0.3-0.1-0.4
	c-0.1-0.1-0.3,0-0.4,0.1l-1.3,2.4c-1.1-0.5-2.3-0.7-3.7-0.7c-1.3,0-2.6,0.3-3.7,0.8L12,5.8c-0.1-0.1-0.3-0.2-0.4-0.1
	c-0.1,0.1-0.2,0.3-0.1,0.4l1.3,2.4c-2,1-3.5,2.8-4,4.8c-0.1,0.5-0.2,1.1-0.2,1.7c0,0.1,0,0.2,0,0.3H25.4z M20.8,10.7
	c0.4,0,0.8,0.4,0.8,0.8c0,0.4-0.4,0.8-0.8,0.8c-0.4,0-0.8-0.4-0.8-0.8C20,11,20.4,10.7,20.8,10.7z M13.2,10.7c0.4,0,0.8,0.4,0.8,0.8
	c0,0.4-0.4,0.8-0.8,0.8c-0.4,0-0.8-0.4-0.8-0.8C12.4,11,12.7,10.7,13.2,10.7z"/>
<g>
	<g>
		<path class="st6" d="M46.3,6.7v1.1H42v1.8h3.3v1.1H42v2.5h-1.3V6.7H46.3z"/>
		<path class="st6" d="M52,6.6l1.3,1.2v4.3L52,13.4h-3.8L47,12.1V7.9l1.3-1.2H52z M48.3,8.3v3.4l0.6,0.6h2.6l0.6-0.6V8.3l-0.6-0.6
			h-2.6L48.3,8.3z"/>
		<path class="st6" d="M56.1,11.1v2.1h-1.3V6.7h4.7l1.2,1.1V10l-1.1,1.1l1.6,2.2h-1.5l-1.5-2.1H56.1z M58.9,7.9h-2.8V10h2.8l0.5-0.5
			V8.3L58.9,7.9z"/>
		<path class="st6" d="M69.6,11.5h-3.1l-0.7,1.7h-1.4l2.9-6.5h1.7l2.9,6.5h-1.4L69.6,11.5z M67.1,10.4h2.1l-1-2.4L67.1,10.4z"/>
		<path class="st6" d="M77.5,6.7h1.3v6.5h-1.3l-3.6-4.5v4.5h-1.3V6.7h1.3l3.6,4.5V6.7z"/>
		<path class="st6" d="M80.4,6.7h4.8l1.3,1.2v4.1l-1.3,1.2h-4.8V6.7z M84.6,12.1l0.6-0.6V8.4l-0.6-0.6h-2.9v4.3H84.6z"/>
		<path class="st6" d="M89.3,11.1v2.1H88V6.7h4.7l1.2,1.1V10l-1.1,1.1l1.6,2.2h-1.5l-1.5-2.1H89.3z M92.1,7.9h-2.8V10h2.8l0.5-0.5
			V8.3L92.1,7.9z"/>
		<path class="st6" d="M100.3,6.6l1.3,1.2v4.3l-1.3,1.2h-3.8l-1.3-1.2V7.9l1.3-1.2H100.3z M96.5,8.3v3.4l0.6,0.6h2.6l0.6-0.6V8.3
			l-0.6-0.6h-2.6L96.5,8.3z"/>
		<path class="st6" d="M102.8,13.3v-1.1h1.3V7.9h-1.3V6.7h3.9v1.1h-1.3v4.3h1.3v1.1H102.8z"/>
		<path class="st6" d="M108,6.7h4.8l1.3,1.2v4.1l-1.3,1.2H108V6.7z M112.2,12.1l0.6-0.6V8.4l-0.6-0.6h-2.9v4.3H112.2z"/>
	</g>
</g>
<path class="st3" d="M25.4,14.8v-0.9c0-0.3-0.1-0.5-0.1-0.8c-0.5-2.2-2-4-4.1-5.1l1.3-2.4c0.1-0.1,0-0.3-0.1-0.4
	c-0.1-0.1-0.3,0-0.4,0.1l-1.3,2.4C19.6,7.3,18.3,7,17,7c-1.3,0-2.6,0.3-3.7,0.8L12,5.4c-0.1-0.1-0.3-0.2-0.4-0.1
	c-0.1,0.1-0.2,0.3-0.1,0.4L12.8,8c-2,1-3.5,2.8-4,4.8c-0.1,0.5-0.2,1.1-0.2,1.7c0,0.1,0,0.2,0,0.3H25.4z M20.8,10.2
	c0.4,0,0.8,0.4,0.8,0.8c0,0.4-0.4,0.8-0.8,0.8c-0.4,0-0.8-0.4-0.8-0.8C20,10.6,20.4,10.2,20.8,10.2z M13.2,10.2
	c0.4,0,0.8,0.4,0.8,0.8c0,0.4-0.4,0.8-0.8,0.8c-0.4,0-0.8-0.4-0.8-0.8C12.4,10.6,12.7,10.2,13.2,10.2z"/>
</svg>
